<svg version="1.1" id="Layer_1" xmlns="http://www.w3.org/2000/svg" xmlns:xlink="http://www.w3.org/1999/xlink" x="0px" y="0px"
	 width="100%" viewBox="0 0 176 166" enable-background="new 0 0 176 166" xml:space="preserve">
<path fill="transparent" opacity="1.000000" stroke="none" 
	d="
M177.000000,67.000000 
	C177.000000,100.666664 177.000000,133.833328 177.000000,167.000000 
	C118.333336,167.000000 59.666668,167.000000 1.000000,167.000000 
	C1.000000,111.666664 1.000000,56.333332 1.000000,1.000000 
	C59.666668,1.000000 118.333336,1.000000 177.000000,1.000000 
	C177.000000,22.833334 177.000000,44.666668 177.000000,67.000000 
M152.132370,46.220867 
	C154.552750,34.403732 152.404327,31.756256 140.470383,31.850765 
	C140.303848,31.852085 140.137390,31.861292 139.989960,30.973064 
	C139.923508,21.839571 140.955292,23.059044 132.071609,23.013458 
	C116.980881,22.936020 101.889717,22.942013 86.800026,22.211359 
	C85.680473,17.509666 82.560020,15.069901 77.872375,15.045562 
	C59.579849,14.950588 41.285858,14.918362 22.993942,15.060021 
	C17.511501,15.102479 14.758995,18.254850 14.983776,23.655024 
	C15.086279,26.117558 15.660104,28.560474 15.720094,31.780838 
	C15.603622,35.235249 15.223938,38.705921 15.436131,42.140026 
	C15.712337,46.610138 16.487688,51.047867 16.997366,55.505352 
	C19.622017,78.459770 22.170031,101.423180 24.879906,124.367493 
	C25.731913,131.581375 29.274183,134.680328 36.434780,134.696289 
	C55.251274,134.738220 74.068047,134.656342 93.370865,135.181915 
	C94.294907,136.923325 95.130508,138.718857 96.157669,140.397171 
	C101.867035,149.725800 109.201607,157.223221 120.163452,161.663834 
	C122.771278,162.236954 125.822807,163.982529 127.914223,163.191071 
	C140.561569,158.404861 150.705292,150.369156 156.831573,138.021240 
	C164.392715,122.781265 164.297394,106.778412 161.361282,90.465134 
	C160.573578,86.088539 157.745056,87.094780 154.347412,86.994827 
	C152.541245,86.520538 150.735092,86.046249 148.970291,84.652504 
	C149.914108,78.126770 151.182968,71.626961 151.705948,65.067673 
	C152.183365,59.079750 151.852905,53.027409 152.132370,46.220867 
z"/>
<path fill="#FFA654" opacity="1.000000" stroke="none" 
	d="
M92.884712,134.623795 
	C74.068047,134.656342 55.251274,134.738220 36.434780,134.696289 
	C29.274183,134.680328 25.731913,131.581375 24.879906,124.367493 
	C22.170031,101.423180 19.622017,78.459770 16.997366,55.505352 
	C16.487688,51.047867 15.712337,46.610138 15.436131,42.140026 
	C15.223938,38.705921 15.603622,35.235249 16.190649,31.231667 
	C20.448545,29.785280 24.235886,28.888065 28.487667,28.047209 
	C44.656670,28.131094 60.361233,28.158621 76.235558,28.468374 
	C80.031242,30.954781 81.952637,33.864918 82.225601,38.408619 
	C82.524490,43.383858 86.937042,45.617733 92.364975,44.169006 
	C94.396568,44.461643 96.008453,44.958294 97.621529,44.962204 
	C111.659897,44.996250 125.698471,44.941971 140.056534,44.942089 
	C140.589294,44.985359 140.802490,45.000484 141.106018,45.172230 
	C141.467941,45.226055 141.739548,45.123253 142.330597,45.022682 
	C143.074982,45.030762 143.499924,45.036606 144.100128,45.348381 
	C148.560699,48.537079 148.437500,52.916641 147.884567,57.206818 
	C146.732040,66.149040 145.311890,75.056770 143.634796,83.970047 
	C138.425995,81.457924 133.425690,79.209892 128.807709,76.345467 
	C126.421669,74.865471 124.949646,74.848328 122.683372,76.414902 
	C114.102295,82.346649 104.722771,86.423782 94.175072,87.081459 
	C91.033730,87.277336 90.502319,89.090134 90.005821,91.548325 
	C87.050697,106.179375 87.970177,120.529587 92.884712,134.623795 
z"/>
<path fill="#6BB3E8" opacity="1.000000" stroke="none" 
	d="
M93.127792,134.902863 
	C87.970177,120.529587 87.050697,106.179375 90.005821,91.548325 
	C90.502319,89.090134 91.033730,87.277336 94.175072,87.081459 
	C104.722771,86.423782 114.102295,82.346649 122.683372,76.414902 
	C124.949646,74.848328 126.421669,74.865471 128.807709,76.345467 
	C133.425690,79.209892 138.425995,81.457924 143.938629,84.186974 
	C146.049255,84.799004 147.489090,85.185478 148.928925,85.571960 
	C150.735092,86.046249 152.541245,86.520538 154.696442,87.490967 
	C155.017654,98.027870 156.293732,108.282158 154.691620,118.065094 
	C151.318222,138.664093 139.066238,152.971466 119.731659,161.063248 
	C109.201607,157.223221 101.867035,149.725800 96.157669,140.397171 
	C95.130508,138.718857 94.294907,136.923325 93.127792,134.902863 
M124.744072,90.242188 
	C121.519997,91.705544 116.135971,92.520584 115.466583,94.750755 
	C113.232033,102.195396 108.483681,108.643753 107.059235,116.182007 
	C106.118408,121.160889 106.757263,126.465942 106.915497,131.617996 
	C107.125244,138.447540 111.419853,142.657135 118.331512,142.856354 
	C123.151939,142.995285 127.980972,142.959503 132.803635,142.868362 
	C140.016357,142.732040 144.542465,138.220230 144.738037,130.949707 
	C144.854324,126.627480 145.321609,122.202057 144.592026,118.003586 
	C143.950699,114.312973 141.857697,110.875977 140.417877,107.322083 
	C139.890305,106.019890 139.044052,104.729691 138.945450,103.389702 
	C138.269531,94.205124 134.643661,90.567940 124.744072,90.242188 
z"/>
<path fill="#D9F1FE" opacity="1.000000" stroke="none" 
	d="
M139.736984,44.913948 
	C125.698471,44.941971 111.659897,44.996250 97.621529,44.962204 
	C96.008453,44.958294 94.396568,44.461643 92.059769,43.994080 
	C89.930290,41.858578 87.834053,40.111820 87.242462,37.952778 
	C84.960320,29.624071 84.513847,29.020325 76.065796,28.186150 
	C60.361233,28.158621 44.656670,28.131094 28.479084,27.606783 
	C28.081547,25.848513 28.157032,24.587027 28.257204,22.912945 
	C48.005657,22.912945 67.402199,22.912945 86.798744,22.912945 
	C101.889717,22.942013 116.980881,22.936020 132.071609,23.013458 
	C140.955292,23.059044 139.923508,21.839571 139.926239,31.890085 
	C139.820663,36.842720 139.778824,40.878334 139.736984,44.913948 
z"/>
<path fill="#49AAE6" opacity="1.000000" stroke="none" 
	d="
M119.947556,161.363541 
	C139.066238,152.971466 151.318222,138.664093 154.691620,118.065094 
	C156.293732,108.282158 155.017654,98.027870 155.042130,87.577286 
	C157.745056,87.094780 160.573578,86.088539 161.361282,90.465134 
	C164.297394,106.778412 164.392715,122.781265 156.831573,138.021240 
	C150.705292,150.369156 140.561569,158.404861 127.914223,163.191071 
	C125.822807,163.982529 122.771278,162.236954 119.947556,161.363541 
z"/>
<path fill="#FF794C" opacity="1.000000" stroke="none" 
	d="
M86.799385,22.562153 
	C67.402199,22.912945 48.005657,22.912945 28.257204,22.912945 
	C28.157032,24.587027 28.081547,25.848513 28.014645,27.550426 
	C24.235886,28.888065 20.448545,29.785280 16.340679,30.847391 
	C15.660104,28.560474 15.086279,26.117558 14.983776,23.655024 
	C14.758995,18.254850 17.511501,15.102479 22.993942,15.060021 
	C41.285858,14.918362 59.579849,14.950588 77.872375,15.045562 
	C82.560020,15.069901 85.680473,17.509666 86.799385,22.562153 
z"/>
<path fill="#F78E35" opacity="1.000000" stroke="none" 
	d="
M148.949615,85.112228 
	C147.489090,85.185478 146.049255,84.799004 144.305573,84.195602 
	C145.311890,75.056770 146.732040,66.149040 147.884567,57.206818 
	C148.437500,52.916641 148.560699,48.537079 144.502380,45.332497 
	C147.112411,45.674942 149.495453,46.339199 151.878510,47.003460 
	C151.852905,53.027409 152.183365,59.079750 151.705948,65.067673 
	C151.182968,71.626961 149.914108,78.126770 148.949615,85.112228 
z"/>
<path fill="#FF7A4E" opacity="1.000000" stroke="none" 
	d="
M152.005432,46.612164 
	C149.495453,46.339199 147.112411,45.674942 144.327103,45.026566 
	C143.499924,45.036606 143.074982,45.030762 142.081711,45.018364 
	C141.513367,45.011810 141.015686,45.015606 141.015686,45.015606 
	C140.802490,45.000484 140.589294,44.985359 140.056534,44.942089 
	C139.778824,40.878334 139.820663,36.842720 139.916687,32.336960 
	C140.137390,31.861292 140.303848,31.852085 140.470383,31.850765 
	C152.404327,31.756256 154.552750,34.403732 152.005432,46.612164 
z"/>
<path fill="#F78E36" opacity="1.000000" stroke="none" 
	d="
M76.235558,28.468376 
	C84.513847,29.020325 84.960320,29.624071 87.242462,37.952778 
	C87.834053,40.111820 89.930290,41.858578 91.640610,43.969635 
	C86.937042,45.617733 82.524490,43.383858 82.225601,38.408619 
	C81.952637,33.864918 80.031242,30.954781 76.235558,28.468376 
z"/>
<path fill="#F78E35" opacity="1.000000" stroke="none" 
	d="
M141.106018,45.172230 
	C141.015686,45.015606 141.513367,45.011810 141.762253,45.016132 
	C141.739548,45.123253 141.467941,45.226055 141.106018,45.172230 
z"/>
<path fill="#03607B" opacity="1.000000" stroke="none" 
	d="
M125.159790,90.241203 
	C134.643661,90.567940 138.269531,94.205124 138.945450,103.389702 
	C139.044052,104.729691 139.890305,106.019890 140.417877,107.322083 
	C141.857697,110.875977 143.950699,114.312973 144.592026,118.003586 
	C145.321609,122.202057 144.854324,126.627480 144.738037,130.949707 
	C144.542465,138.220230 140.016357,142.732040 132.803635,142.868362 
	C127.980972,142.959503 123.151939,142.995285 118.331512,142.856354 
	C111.419853,142.657135 107.125244,138.447540 106.915497,131.617996 
	C106.757263,126.465942 106.118408,121.160889 107.059235,116.182007 
	C108.483681,108.643753 113.232033,102.195396 115.466583,94.750755 
	C116.135971,92.520584 121.519997,91.705544 125.159790,90.241203 
M121.414505,115.938248 
	C121.222664,118.091408 120.053078,121.098137 121.036835,122.225021 
	C123.278023,124.792282 122.542809,127.026497 121.889763,129.564163 
	C121.375084,131.564148 120.871620,133.567017 120.296402,135.831451 
	C124.130829,135.831451 127.378479,135.831451 131.025757,135.831451 
	C130.546951,133.564041 129.923141,131.670776 129.800385,129.745560 
	C129.663300,127.596115 130.091324,125.416710 130.072525,123.252083 
	C130.050079,120.664925 130.687347,117.508934 129.459839,115.631996 
	C127.768562,113.045921 124.571205,113.312241 121.414505,115.938248 
M130.315094,104.995193 
	C131.775864,104.913826 133.236633,104.832458 134.694016,104.751282 
	C135.665359,100.672127 135.031403,96.704155 131.445099,95.513275 
	C127.996658,94.368172 123.412712,94.238708 120.183037,95.637650 
	C117.813950,96.663826 116.827011,100.880920 115.224075,103.675896 
	C115.653702,104.115685 116.083328,104.555481 116.512962,104.995270 
	C120.795357,104.995270 125.077759,104.995270 130.315094,104.995193 
z"/>
<path fill="#66B0E6" opacity="1.000000" stroke="none" 
	d="
M121.694580,115.659424 
	C124.571205,113.312241 127.768562,113.045921 129.459839,115.631996 
	C130.687347,117.508934 130.050079,120.664925 130.072525,123.252083 
	C130.091324,125.416710 129.663300,127.596115 129.800385,129.745560 
	C129.923141,131.670776 130.546951,133.564041 131.025757,135.831451 
	C127.378479,135.831451 124.130829,135.831451 120.296402,135.831451 
	C120.871620,133.567017 121.375084,131.564148 121.889763,129.564163 
	C122.542809,127.026497 123.278023,124.792282 121.036835,122.225021 
	C120.053078,121.098137 121.222664,118.091408 121.694580,115.659424 
z"/>
<path fill="#68B1E8" opacity="1.000000" stroke="none" 
	d="
M129.837616,104.995232 
	C125.077759,104.995270 120.795357,104.995270 116.512962,104.995270 
	C116.083328,104.555481 115.653702,104.115685 115.224075,103.675896 
	C116.827011,100.880920 117.813950,96.663826 120.183037,95.637650 
	C123.412712,94.238708 127.996658,94.368172 131.445099,95.513275 
	C135.031403,96.704155 135.665359,100.672127 134.694016,104.751282 
	C133.236633,104.832458 131.775864,104.913826 129.837616,104.995232 
z"/>
</svg>