<svg version="1.1" id="Layer_1" xmlns="http://www.w3.org/2000/svg" xmlns:xlink="http://www.w3.org/1999/xlink" x="0px" y="0px"
	 width="100%" viewBox="0 0 162 190" enable-background="new 0 0 162 190" xml:space="preserve">
<path fill="transparent" opacity="1.000000" stroke="none" 
	d="
M93.000000,191.000000 
	C62.000000,191.000000 31.500004,191.000000 1.000004,191.000000 
	C1.000003,127.666672 1.000003,64.333344 1.000001,1.000013 
	C54.999989,1.000008 108.999977,1.000008 162.999969,1.000004 
	C162.999985,64.333321 162.999985,127.666649 163.000000,190.999985 
	C139.833328,191.000000 116.666664,191.000000 93.000000,191.000000 
M137.961258,140.356750 
	C137.597549,139.171478 137.233826,137.986206 137.075562,136.141968 
	C138.104691,134.247086 139.216217,132.391876 140.150620,130.451385 
	C154.731400,100.170898 154.795700,68.625694 148.440201,36.477169 
	C147.779022,33.132664 146.464493,31.684868 142.974030,31.677614 
	C139.338638,31.670059 135.704529,31.047508 131.391541,30.373716 
	C113.567078,27.028757 97.500694,19.601261 82.897758,9.024049 
	C79.916267,6.864493 78.106361,6.922328 75.149338,9.051170 
	C57.244411,21.941395 37.451515,30.164410 15.273948,31.788500 
	C11.763051,32.045605 10.516665,33.226032 9.787604,36.551800 
	C5.721064,55.102245 4.607760,73.779922 6.985917,92.616577 
	C11.054267,124.840752 25.219063,151.079941 53.251133,169.770004 
	C60.455879,173.494965 67.532959,177.509262 74.939407,180.777084 
	C77.310394,181.823212 80.867050,181.702423 83.346703,180.739319 
	C101.809990,173.568161 117.461517,162.360336 130.757355,147.018555 
	C131.215561,147.026642 131.673782,147.034729 132.184433,147.711517 
	C134.270020,149.966385 136.355606,152.221237 138.288239,154.310730 
	C140.998169,151.941071 143.368332,149.868500 146.236542,147.360428 
	C143.101669,144.966156 140.568756,143.031647 137.961258,140.356750 
z"/>
<path fill="#5DA0DC" opacity="1.000000" stroke="none" 
	d="
M52.838516,169.238541 
	C25.219063,151.079941 11.054267,124.840752 6.985917,92.616577 
	C4.607760,73.779922 5.721064,55.102245 9.787604,36.551800 
	C10.516665,33.226032 11.763051,32.045605 15.273948,31.788500 
	C37.451515,30.164410 57.244411,21.941395 75.149338,9.051170 
	C78.106361,6.922328 79.916267,6.864493 82.897758,9.024049 
	C97.500694,19.601261 113.567078,27.028757 131.708954,31.027973 
	C131.688187,39.465282 131.446609,47.253990 130.991180,55.030178 
	C130.113220,70.020760 127.109169,84.565544 121.299652,98.454536 
	C118.932053,104.114838 116.324364,109.674713 113.544724,115.085869 
	C110.902618,112.533173 107.926735,111.019333 110.677109,106.385788 
	C118.648659,92.956131 118.706528,78.962509 110.309380,65.761261 
	C101.621315,52.102642 88.785797,46.062950 72.470726,47.920525 
	C54.212013,49.999397 38.201656,64.693184 38.540199,86.585556 
	C39.023357,117.829712 70.801178,133.861649 95.495361,120.648262 
	C100.706024,117.860123 103.863808,118.164291 107.039543,122.724716 
	C107.603249,123.534210 108.285820,124.260933 108.573868,125.061096 
	C107.325333,125.777519 106.176857,126.286285 105.543671,127.165947 
	C96.902161,139.171494 86.104820,148.874466 73.698311,156.786987 
	C66.873825,161.139420 59.799950,165.100830 52.838516,169.238541 
z"/>
<path fill="#4B93C8" opacity="1.000000" stroke="none" 
	d="
M113.825912,115.280289 
	C116.324364,109.674713 118.932053,104.114838 121.299652,98.454536 
	C127.109169,84.565544 130.113220,70.020760 130.991180,55.030178 
	C131.446609,47.253990 131.688187,39.465282 132.048126,31.188042 
	C135.704529,31.047508 139.338638,31.670059 142.974030,31.677614 
	C146.464493,31.684868 147.779022,33.132664 148.440201,36.477169 
	C154.795700,68.625694 154.731400,100.170898 140.150620,130.451385 
	C139.216217,132.391876 138.104691,134.247086 136.632095,136.534363 
	C128.734390,129.711258 121.280159,122.495773 113.825912,115.280289 
z"/>
<path fill="#C8E9FD" opacity="1.000000" stroke="none" 
	d="
M113.544724,115.085869 
	C121.280159,122.495773 128.734390,129.711258 136.529373,136.863831 
	C137.233826,137.986206 137.597549,139.171478 137.887894,141.035004 
	C135.920349,143.489777 134.026169,145.266296 132.131989,147.042816 
	C131.673782,147.034729 131.215561,147.026642 130.356339,146.673447 
	C122.941383,139.227524 115.927444,132.126694 108.913506,125.025871 
	C108.285820,124.260933 107.603249,123.534210 107.039543,122.724716 
	C103.863808,118.164291 100.706024,117.860123 95.495361,120.648262 
	C70.801178,133.861649 39.023357,117.829712 38.540199,86.585556 
	C38.201656,64.693184 54.212013,49.999397 72.470726,47.920525 
	C88.785797,46.062950 101.621315,52.102642 110.309380,65.761261 
	C118.706528,78.962509 118.648659,92.956131 110.677109,106.385788 
	C107.926735,111.019333 110.902618,112.533173 113.544724,115.085869 
M71.749962,115.956779 
	C74.873192,116.009865 78.029610,116.381424 81.113831,116.060104 
	C93.490372,114.770676 103.761658,105.607750 106.709175,93.503799 
	C109.673309,81.331635 104.363823,67.666725 94.160820,61.208351 
	C83.232300,54.290730 68.975586,54.713150 59.112663,62.556278 
	C49.384476,70.292259 45.633102,80.597260 48.139816,92.659523 
	C50.711842,105.036034 58.710163,112.650414 71.749962,115.956779 
z"/>
<path fill="#4C93C9" opacity="1.000000" stroke="none" 
	d="
M108.573868,125.061096 
	C115.927444,132.126694 122.941383,139.227524 130.012665,146.668365 
	C117.461517,162.360336 101.809990,173.568161 83.346703,180.739319 
	C80.867050,181.702423 77.310394,181.823212 74.939407,180.777084 
	C67.532959,177.509262 60.455879,173.494965 53.044823,169.504272 
	C59.799950,165.100830 66.873825,161.139420 73.698311,156.786987 
	C86.104820,148.874466 96.902161,139.171494 105.543671,127.165947 
	C106.176857,126.286285 107.325333,125.777519 108.573868,125.061096 
z"/>
<path fill="#0A647D" opacity="1.000000" stroke="none" 
	d="
M132.158203,147.377167 
	C134.026169,145.266296 135.920349,143.489777 137.925201,141.405197 
	C140.568756,143.031647 143.101669,144.966156 146.236542,147.360428 
	C143.368332,149.868500 140.998169,151.941071 138.288239,154.310730 
	C136.355606,152.221237 134.270020,149.966385 132.158203,147.377167 
z"/>
<path fill="#FAA355" opacity="1.000000" stroke="none" 
	d="
M71.343155,115.886108 
	C58.710163,112.650414 50.711842,105.036034 48.139816,92.659523 
	C45.633102,80.597260 49.384476,70.292259 59.112663,62.556278 
	C68.975586,54.713150 83.232300,54.290730 94.160820,61.208351 
	C104.363823,67.666725 109.673309,81.331635 106.709175,93.503799 
	C103.761658,105.607750 93.490372,114.770676 81.113831,116.060104 
	C78.029610,116.381424 74.873192,116.009865 71.343155,115.886108 
M86.923325,79.414711 
	C84.317841,81.160965 82.530144,81.450729 83.018829,77.328087 
	C83.496948,73.294556 81.587509,70.870888 77.643097,70.431793 
	C74.143250,70.042183 72.037338,72.913612 71.947365,77.467201 
	C71.925270,78.585861 71.467651,79.695900 71.173058,80.970932 
	C68.047859,79.402176 65.576859,78.161804 63.105850,76.921432 
	C62.834469,77.387054 62.563091,77.852684 62.291710,78.318306 
	C63.953644,79.480843 65.852371,80.425125 67.195038,81.881920 
	C68.104340,82.868500 68.882736,84.789848 68.518105,85.897591 
	C68.182549,86.916946 66.318130,87.731613 64.987564,88.046593 
	C63.447376,88.411209 61.754646,88.131470 58.966942,88.131470 
	C63.114765,90.249557 67.825417,91.265549 68.256721,93.223984 
	C68.806480,95.720299 65.896156,98.978622 64.477333,101.908478 
	C64.634377,102.110573 64.791420,102.312668 64.948463,102.514763 
	C66.803230,101.082222 68.657990,99.649681 70.515564,98.214966 
	C76.804550,102.839020 78.032616,102.839828 84.366585,98.334984 
	C86.395554,99.718895 88.342972,101.047180 90.290398,102.375465 
	C90.576889,101.991066 90.863388,101.606659 91.149887,101.222252 
	C90.047928,100.050514 88.712685,99.017776 87.908653,97.668495 
	C87.080391,96.278557 86.159874,94.459412 86.437599,93.057434 
	C86.637207,92.049835 88.661980,91.236382 90.012146,90.667839 
	C91.585434,90.005363 93.310814,89.704079 94.970192,89.246056 
	C93.376999,88.081360 91.994164,88.366302 90.801529,88.011642 
	C89.189651,87.532310 87.723915,86.561600 86.195473,85.801720 
	C87.013077,84.240105 87.619423,82.506210 88.710793,81.167847 
	C89.699135,79.955841 91.216553,79.175270 92.500694,78.204475 
	C92.203842,77.769531 91.906982,77.334587 91.610130,76.899643 
	C90.256836,77.599907 88.903542,78.300171 86.923325,79.414711 
z"/>
<path fill="#0E6175" opacity="1.000000" stroke="none" 
	d="
M87.236786,79.207573 
	C88.903542,78.300171 90.256836,77.599907 91.610130,76.899643 
	C91.906982,77.334587 92.203842,77.769531 92.500694,78.204475 
	C91.216553,79.175270 89.699135,79.955841 88.710793,81.167847 
	C87.619423,82.506210 87.013077,84.240105 86.195473,85.801720 
	C87.723915,86.561600 89.189651,87.532310 90.801529,88.011642 
	C91.994164,88.366302 93.376999,88.081360 94.970192,89.246056 
	C93.310814,89.704079 91.585434,90.005363 90.012146,90.667839 
	C88.661980,91.236382 86.637207,92.049835 86.437599,93.057434 
	C86.159874,94.459412 87.080391,96.278557 87.908653,97.668495 
	C88.712685,99.017776 90.047928,100.050514 91.149887,101.222252 
	C90.863388,101.606659 90.576889,101.991066 90.290398,102.375465 
	C88.342972,101.047180 86.395554,99.718895 84.366585,98.334984 
	C78.032616,102.839828 76.804550,102.839020 70.515564,98.214966 
	C68.657990,99.649681 66.803230,101.082222 64.948463,102.514763 
	C64.791420,102.312668 64.634377,102.110573 64.477333,101.908478 
	C65.896156,98.978622 68.806480,95.720299 68.256721,93.223984 
	C67.825417,91.265549 63.114765,90.249557 58.966942,88.131470 
	C61.754646,88.131470 63.447376,88.411209 64.987564,88.046593 
	C66.318130,87.731613 68.182549,86.916946 68.518105,85.897591 
	C68.882736,84.789848 68.104340,82.868500 67.195038,81.881920 
	C65.852371,80.425125 63.953644,79.480843 62.291710,78.318306 
	C62.563091,77.852684 62.834469,77.387054 63.105850,76.921432 
	C65.576859,78.161804 68.047859,79.402176 71.173058,80.970932 
	C71.467651,79.695900 71.925270,78.585861 71.947365,77.467201 
	C72.037338,72.913612 74.143250,70.042183 77.643097,70.431793 
	C81.587509,70.870888 83.496948,73.294556 83.018829,77.328087 
	C82.530144,81.450729 84.317841,81.160965 87.236786,79.207573 
z"/>
</svg>