<svg version="1.1" id="Layer_1" xmlns="http://www.w3.org/2000/svg" xmlns:xlink="http://www.w3.org/1999/xlink" x="0px" y="0px"
	 width="100%" viewBox="0 0 203 177" enable-background="new 0 0 203 177" xml:space="preserve">
<path fill="transparent" opacity="1.000000" stroke="none" 
	d="
M125.000000,178.000000 
	C83.360428,178.000000 42.220848,178.000000 1.040637,178.000000 
	C1.040637,119.065941 1.040637,60.131851 1.040637,1.098879 
	C68.556091,1.098879 136.112366,1.098879 203.834320,1.098879 
	C203.834320,59.999622 203.834320,118.999771 203.834320,178.000000 
	C177.798782,178.000000 151.649384,178.000000 125.000000,178.000000 
M157.101776,154.603760 
	C157.778870,156.092743 158.455963,157.581741 159.308212,159.455887 
	C162.022141,156.327026 163.059753,155.130768 164.331635,153.664429 
	C162.779694,152.280365 161.469559,151.111984 159.813614,149.364563 
	C156.775894,146.525742 153.738159,143.686935 150.868652,141.005325 
	C157.429016,127.338821 156.102646,120.011703 145.915680,109.392372 
	C147.289200,98.890251 148.662735,88.388123 150.742233,77.728195 
	C154.147644,77.009117 157.650742,76.570038 160.910263,75.432800 
	C162.209442,74.979507 163.834625,72.975174 163.822968,71.690445 
	C163.777985,66.737556 165.125916,62.756168 168.928848,59.340908 
	C169.882553,58.484432 169.970215,54.844948 169.076431,54.064709 
	C165.205231,50.685303 163.923035,46.673187 163.782318,41.728153 
	C163.744003,40.381138 161.428452,38.023243 160.098450,37.980461 
	C155.133774,37.820774 151.090240,36.504787 147.698792,32.644779 
	C146.896652,31.731821 143.405304,31.601585 142.740372,32.413288 
	C139.301895,36.610695 134.987625,37.739540 129.868225,37.950657 
	C128.570892,38.004154 126.955620,40.279251 126.237076,41.872124 
	C125.377045,43.778603 125.322121,46.048256 124.137428,48.211021 
	C116.631927,44.417721 109.172981,40.526451 101.579269,36.918819 
	C100.163818,36.246357 97.728386,35.994392 96.573944,36.763920 
	C83.949661,45.179024 70.628586,51.556293 55.149193,52.319580 
	C52.508289,52.449802 51.026913,53.650566 50.761730,56.598991 
	C50.332134,61.375435 49.465446,66.112572 47.935169,71.024841 
	C35.245594,71.380814 30.747183,75.007347 29.905424,85.690384 
	C27.889456,89.126083 24.674128,92.381233 24.123690,96.037567 
	C23.171606,102.361877 23.447794,108.976143 24.068230,115.385574 
	C24.356506,118.363625 26.661121,121.146484 28.486349,124.593758 
	C38.717468,129.183212 49.308784,126.819794 60.023506,126.863503 
	C65.339928,135.571060 72.444870,142.501831 81.426796,148.516647 
	C85.217911,150.571396 89.040161,152.571167 92.791702,154.695770 
	C96.863663,157.001846 100.774597,157.203140 104.897751,154.667984 
	C110.543991,151.196381 116.338554,147.966034 122.752419,144.911865 
	C127.718384,148.155304 133.927643,150.265121 138.727570,147.597351 
	C147.014587,142.991470 150.856689,147.771210 155.338608,152.789139 
	C155.765030,153.266556 156.375885,153.579269 157.101776,154.603760 
M52.782063,33.958683 
	C55.425304,36.148949 58.068542,38.339218 60.172066,40.082260 
	C62.374088,37.949249 65.281837,35.132633 67.374786,33.105282 
	C64.859650,30.533840 62.108288,27.720884 59.176350,24.723314 
	C59.079151,29.067516 56.333820,31.480106 51.971661,32.313755 
	C51.920467,32.323536 52.051174,33.285130 52.782063,33.958683 
M178.468277,130.998032 
	C179.538849,130.439102 180.609421,129.880188 180.870010,129.744125 
	C178.126907,126.786285 175.544083,124.001274 172.884949,121.133995 
	C172.498093,125.188637 170.203568,128.363907 165.883423,128.449493 
	C168.838760,131.650803 171.540268,134.577148 173.891861,137.124451 
	C174.828522,135.682220 176.286133,133.437836 178.468277,130.998032 
M159.085983,96.792091 
	C160.859528,97.985313 162.633072,99.178528 164.406616,100.371742 
	C163.736481,99.744080 163.066345,99.116417 162.396210,98.488754 
	C163.977524,97.211601 165.558838,95.934448 167.140137,94.657295 
	C167.519821,95.169083 167.899490,95.680862 168.279160,96.192650 
	C166.765945,94.443481 165.252731,92.694321 163.739517,90.945152 
	C164.315308,91.435593 164.891083,91.926033 165.466873,92.416466 
	C163.165146,93.736298 160.863403,95.056129 159.085983,96.792091 
M65.316376,158.789978 
	C66.606003,158.121277 67.895630,157.452576 69.185265,156.783875 
	C68.410110,157.460754 67.634964,158.137650 66.859810,158.814545 
	C65.458275,156.753143 64.056740,154.691757 62.655209,152.630371 
	C63.608204,152.965790 64.561195,153.301208 65.514191,153.636627 
	C63.780293,155.189835 62.046394,156.743057 60.312496,158.296265 
	C59.847260,157.724747 59.382019,157.153214 58.916782,156.581696 
	C60.581402,158.334290 62.246021,160.086899 63.997005,161.930435 
	C64.304771,161.206116 64.684326,160.312805 65.316376,158.789978 
M35.110458,54.307396 
	C35.573437,55.250591 36.036415,56.193787 36.286961,56.704197 
	C38.274818,54.882011 40.165649,53.148766 41.583538,51.849045 
	C39.962029,50.398312 38.119938,48.750233 36.298172,47.120338 
	C35.206448,48.534782 33.850338,50.291763 32.361050,52.221294 
	C33.181164,52.736687 33.974388,53.235184 35.110458,54.307396 
M177.363510,77.042435 
	C176.456741,77.725075 175.549973,78.407715 174.805420,78.968231 
	C176.212936,80.347641 177.541641,81.649811 178.817764,82.900459 
	C179.828384,81.844261 181.025665,80.592964 182.559494,78.989952 
	C180.794724,78.092125 179.263748,77.313240 177.363510,77.042435 
M32.272591,25.517769 
	C33.300995,24.169928 34.329395,22.822084 35.254589,21.609509 
	C33.972225,20.165152 32.824295,18.872210 31.676367,17.579268 
	C32.211029,18.243809 32.745689,18.908352 33.280350,19.572895 
	C31.841133,20.644245 30.401915,21.715595 29.195868,22.613373 
	C29.404751,22.860167 30.521828,24.179998 32.272591,25.517769 
M159.788177,20.112427 
	C161.129959,19.168846 162.471741,18.225264 163.767914,17.313759 
	C162.386230,15.562336 161.344406,14.241726 160.302567,12.921116 
	C160.683105,13.338688 161.063629,13.756259 161.444153,14.173831 
	C160.092438,15.482214 158.740723,16.790596 157.501038,17.990540 
	C157.473267,17.965689 158.417160,18.810213 159.788177,20.112427 
M48.850529,145.227112 
	C49.954987,144.313019 51.059444,143.398941 52.099068,142.538498 
	C50.629341,141.488235 49.209240,140.473434 47.918243,139.550873 
	C46.811104,140.638977 45.769012,141.663132 44.471539,142.938293 
	C45.752457,143.824860 47.049858,144.722824 48.850529,145.227112 
z"/>
<path fill="#64BAFF" opacity="1.000000" stroke="none" 
	d="
M81.006775,147.985168 
	C72.444870,142.501831 65.339928,135.571060 60.227158,126.358002 
	C61.956779,124.356651 63.749599,123.048401 64.958199,121.329407 
	C68.447021,116.367218 67.703224,94.018173 64.045479,88.925865 
	C64.031647,88.967888 64.118820,88.983078 64.036819,88.707489 
	C63.650562,88.212433 63.346298,87.992966 62.882530,87.459061 
	C61.961533,86.595757 61.200035,86.046867 60.514057,85.167145 
	C60.064949,77.297119 56.152737,72.620834 48.783310,70.866302 
	C49.465446,66.112572 50.332134,61.375435 50.761730,56.598991 
	C51.026913,53.650566 52.508289,52.449802 55.149193,52.319580 
	C70.628586,51.556293 83.949661,45.179024 96.573944,36.763920 
	C97.728386,35.994392 100.163818,36.246357 101.579269,36.918819 
	C109.172981,40.526451 116.631927,44.417721 124.718056,48.482391 
	C127.145561,49.178734 128.992432,49.603706 131.050964,50.283325 
	C132.505081,50.997257 133.747574,51.456547 134.995911,52.389656 
	C135.370026,64.655052 135.135437,76.441574 131.783722,87.833794 
	C129.595993,95.269753 126.590935,102.465256 123.684494,109.984657 
	C118.293480,113.444817 115.441803,118.271561 113.500465,124.015938 
	C112.138664,124.859055 111.091141,125.629341 110.076256,126.440468 
	C103.942390,131.342850 97.906166,136.373550 91.650772,141.115265 
	C88.295097,143.658951 84.566879,145.711182 81.006775,147.985168 
M111.509697,83.043068 
	C106.659584,88.713615 101.577461,94.206734 97.051407,100.125107 
	C94.566238,103.374763 92.548409,103.310219 89.639000,101.104431 
	C85.845421,98.228294 81.908546,95.541161 77.838326,92.633385 
	C76.025574,95.072090 74.583107,97.012657 72.895943,99.282410 
	C78.454750,103.204056 83.760712,106.873795 88.987015,110.653687 
	C95.023384,115.019463 95.176643,115.034599 99.792938,109.650421 
	C107.672104,100.460579 115.549789,91.269386 123.459969,82.106277 
	C128.301376,76.498024 128.202515,76.018326 120.926926,72.593163 
	C117.977654,75.877083 114.990936,79.202705 111.509697,83.043068 
z"/>
<path fill="#FE9540" opacity="1.000000" stroke="none" 
	d="
M60.438538,85.497971 
	C61.200035,86.046867 61.961533,86.595757 62.984665,87.723183 
	C63.537136,88.528847 63.827976,88.755959 64.118820,88.983078 
	C64.118820,88.983078 64.031647,88.967888 64.022537,89.403519 
	C64.014580,96.829445 64.020546,103.819725 64.015686,110.810013 
	C64.009422,119.822060 59.025181,124.981422 49.895988,124.914230 
	C42.612755,124.860619 35.332996,124.334305 28.051697,124.017830 
	C26.661121,121.146484 24.356506,118.363625 24.068230,115.385574 
	C23.447794,108.976143 23.171606,102.361877 24.123690,96.037567 
	C24.674128,92.381233 27.889456,89.126083 30.451159,85.356842 
	C32.223106,84.651184 33.449318,84.279076 35.161369,83.946548 
	C39.784035,83.938316 43.920864,83.890503 48.491920,83.907440 
	C51.267853,83.946922 53.609547,83.921654 56.232365,84.042694 
	C57.821838,84.625336 59.130188,85.061653 60.438538,85.497971 
M39.503208,116.877724 
	C39.962337,117.860855 40.358574,119.653824 40.890846,119.695168 
	C44.244736,119.955650 47.628838,119.827118 51.716091,119.827118 
	C50.754738,116.008514 49.779762,113.202621 49.423183,110.320229 
	C49.208496,108.584801 49.489147,106.450958 50.365261,104.985092 
	C52.447250,101.501625 52.650414,98.361046 49.512642,95.648956 
	C46.787628,93.293633 43.609688,93.271019 40.949665,95.736298 
	C37.942211,98.523598 38.112514,101.685555 40.347683,105.099876 
	C41.169762,106.355629 41.363670,108.277245 41.229149,109.842278 
	C41.047489,111.955681 40.272469,114.018082 39.503208,116.877724 
z"/>
<path fill="#50ADF5" opacity="1.000000" stroke="none" 
	d="
M123.951981,109.768471 
	C126.590935,102.465256 129.595993,95.269753 131.783722,87.833794 
	C135.135437,76.441574 135.370026,64.655052 135.442566,52.354507 
	C137.373550,51.926361 138.873215,52.154938 140.352158,52.060169 
	C144.711014,51.780876 147.143524,53.449814 147.613495,58.064522 
	C148.079681,62.641991 149.030273,67.170128 149.763107,72.162567 
	C149.850616,74.365501 149.943436,76.125748 150.036255,77.886002 
	C148.662735,88.388123 147.289200,98.890251 145.453018,109.713501 
	C138.027725,105.981415 131.009537,106.318756 123.951981,109.768471 
z"/>
<path fill="#186488" opacity="1.000000" stroke="none" 
	d="
M123.684494,109.984657 
	C131.009537,106.318756 138.027725,105.981415 145.344467,110.105911 
	C156.102646,120.011703 157.429016,127.338821 150.868652,141.005325 
	C153.738159,143.686935 156.775894,146.525742 159.834579,149.943481 
	C158.870728,151.671097 157.885910,152.819778 156.901108,153.968460 
	C156.375885,153.579269 155.765030,153.266556 155.338608,152.789139 
	C150.856689,147.771210 147.014587,142.991470 138.727570,147.597351 
	C133.927643,150.265121 127.718384,148.155304 122.229218,144.510468 
	C115.041084,138.972565 113.378914,131.880310 113.829826,123.961983 
	C115.441803,118.271561 118.293480,113.444817 123.684494,109.984657 
M140.120239,113.014839 
	C131.374619,110.465614 123.738274,113.384308 120.189003,120.632797 
	C116.725632,127.705856 118.786240,136.344177 124.971428,140.681320 
	C132.821152,146.185654 142.836014,144.156952 147.982162,136.020065 
	C152.978027,128.120804 149.930511,118.402809 140.120239,113.014839 
z"/>
<path fill="#50ADF5" opacity="1.000000" stroke="none" 
	d="
M113.500465,124.015938 
	C113.378914,131.880310 115.041084,138.972565 121.887787,144.370667 
	C116.338554,147.966034 110.543991,151.196381 104.897751,154.667984 
	C100.774597,157.203140 96.863663,157.001846 92.791702,154.695770 
	C89.040161,152.571167 85.217911,150.571396 81.216782,148.250916 
	C84.566879,145.711182 88.295097,143.658951 91.650772,141.115265 
	C97.906166,136.373550 103.942390,131.342850 110.076256,126.440468 
	C111.091141,125.629341 112.138664,124.859055 113.500465,124.015938 
z"/>
<path fill="#1A668A" opacity="1.000000" stroke="none" 
	d="
M150.389252,77.807098 
	C149.943436,76.125748 149.850616,74.365501 150.065887,72.004990 
	C157.654007,68.151337 161.685852,61.916267 160.898788,55.128605 
	C160.115265,48.371502 155.030350,42.647999 148.490692,41.162277 
	C141.403778,39.552227 134.965134,42.786400 130.839310,50.028679 
	C128.992432,49.603706 127.145561,49.178734 125.108597,48.457191 
	C125.322121,46.048256 125.377045,43.778603 126.237076,41.872124 
	C126.955620,40.279251 128.570892,38.004154 129.868225,37.950657 
	C134.987625,37.739540 139.301895,36.610695 142.740372,32.413288 
	C143.405304,31.601585 146.896652,31.731821 147.698792,32.644779 
	C151.090240,36.504787 155.133774,37.820774 160.098450,37.980461 
	C161.428452,38.023243 163.744003,40.381138 163.782318,41.728153 
	C163.923035,46.673187 165.205231,50.685303 169.076431,54.064709 
	C169.970215,54.844948 169.882553,58.484432 168.928848,59.340908 
	C165.125916,62.756168 163.777985,66.737556 163.822968,71.690445 
	C163.834625,72.975174 162.209442,74.979507 160.910263,75.432800 
	C157.650742,76.570038 154.147644,77.009117 150.389252,77.807098 
z"/>
<path fill="#FC761D" opacity="1.000000" stroke="none" 
	d="
M28.269024,124.305794 
	C35.332996,124.334305 42.612755,124.860619 49.895988,124.914230 
	C59.025181,124.981422 64.009422,119.822060 64.015686,110.810013 
	C64.020546,103.819725 64.014580,96.829445 64.036362,89.361496 
	C67.703224,94.018173 68.447021,116.367218 64.958199,121.329407 
	C63.749599,123.048401 61.956779,124.356651 60.119865,126.034485 
	C49.308784,126.819794 38.717468,129.183212 28.269024,124.305794 
z"/>
<path fill="#1D688D" opacity="1.000000" stroke="none" 
	d="
M34.675529,83.906967 
	C33.449318,84.279076 32.223106,84.651184 30.685383,85.102859 
	C30.747183,75.007347 35.245594,71.380814 48.359238,70.945572 
	C56.152737,72.620834 60.064949,77.297119 60.514057,85.167137 
	C59.130188,85.061653 57.821838,84.625336 56.235828,83.678688 
	C55.238464,78.792816 52.737572,76.244476 47.941071,75.514923 
	C38.705368,75.040215 35.898319,76.902718 34.675529,83.906967 
z"/>
<path fill="#BEF6FF" opacity="1.000000" stroke="none" 
	d="
M52.439514,33.880554 
	C52.051174,33.285130 51.920467,32.323536 51.971661,32.313755 
	C56.333820,31.480106 59.079151,29.067516 59.176350,24.723314 
	C62.108288,27.720884 64.859650,30.533840 67.374786,33.105282 
	C65.281837,35.132633 62.374088,37.949249 60.172066,40.082260 
	C58.068542,38.339218 55.425304,36.148949 52.439514,33.880554 
z"/>
<path fill="#BDF6FF" opacity="1.000000" stroke="none" 
	d="
M178.106018,131.095749 
	C176.286133,133.437836 174.828522,135.682220 173.891861,137.124451 
	C171.540268,134.577148 168.838760,131.650803 165.883423,128.449493 
	C170.203568,128.363907 172.498093,125.188637 172.884949,121.133995 
	C175.544083,124.001274 178.126907,126.786285 180.870010,129.744125 
	C180.609421,129.880188 179.538849,130.439102 178.106018,131.095749 
z"/>
<path fill="#C2F6FF" opacity="1.000000" stroke="none" 
	d="
M158.823822,96.584030 
	C160.863403,95.056129 163.165146,93.736298 165.466873,92.416466 
	C164.891083,91.926033 164.315308,91.435593 163.739517,90.945152 
	C165.252731,92.694321 166.765945,94.443481 168.279160,96.192650 
	C167.899490,95.680862 167.519821,95.169083 167.140137,94.657295 
	C165.558838,95.934448 163.977524,97.211601 162.396210,98.488754 
	C163.066345,99.116417 163.736481,99.744080 164.406616,100.371742 
	C162.633072,99.178528 160.859528,97.985313 158.823822,96.584030 
z"/>
<path fill="#C2F6FF" opacity="1.000000" stroke="none" 
	d="
M65.190132,159.104736 
	C64.684326,160.312805 64.304771,161.206116 63.997005,161.930435 
	C62.246021,160.086899 60.581402,158.334290 58.916782,156.581696 
	C59.382019,157.153214 59.847260,157.724747 60.312496,158.296265 
	C62.046394,156.743057 63.780293,155.189835 65.514191,153.636627 
	C64.561195,153.301208 63.608204,152.965790 62.655209,152.630371 
	C64.056740,154.691757 65.458275,156.753143 66.859810,158.814545 
	C67.634964,158.137650 68.410110,157.460754 69.185265,156.783875 
	C67.895630,157.452576 66.606003,158.121277 65.190132,159.104736 
z"/>
<path fill="#C1F6FF" opacity="1.000000" stroke="none" 
	d="
M34.939034,54.020538 
	C33.974388,53.235184 33.181164,52.736687 32.361050,52.221294 
	C33.850338,50.291763 35.206448,48.534782 36.298172,47.120338 
	C38.119938,48.750233 39.962029,50.398312 41.583538,51.849045 
	C40.165649,53.148766 38.274818,54.882011 36.286961,56.704197 
	C36.036415,56.193787 35.573437,55.250591 34.939034,54.020538 
z"/>
<path fill="#64B6F5" opacity="1.000000" stroke="none" 
	d="
M157.001434,154.286102 
	C157.885910,152.819778 158.870728,151.671097 160.007492,150.233002 
	C161.469559,151.111984 162.779694,152.280365 164.331635,153.664429 
	C163.059753,155.130768 162.022141,156.327026 159.308212,159.455887 
	C158.455963,157.581741 157.778870,156.092743 157.001434,154.286102 
z"/>
<path fill="#C3F6FF" opacity="1.000000" stroke="none" 
	d="
M177.548141,76.788399 
	C179.263748,77.313240 180.794724,78.092125 182.559494,78.989952 
	C181.025665,80.592964 179.828384,81.844261 178.817764,82.900459 
	C177.541641,81.649811 176.212936,80.347641 174.805420,78.968231 
	C175.549973,78.407715 176.456741,77.725075 177.548141,76.788399 
z"/>
<path fill="#C4F7FF" opacity="1.000000" stroke="none" 
	d="
M31.955748,25.508799 
	C30.521828,24.179998 29.404751,22.860167 29.195868,22.613373 
	C30.401915,21.715595 31.841133,20.644245 33.280350,19.572895 
	C32.745689,18.908352 32.211029,18.243809 31.676367,17.579268 
	C32.824295,18.872210 33.972225,20.165152 35.254589,21.609509 
	C34.329395,22.822084 33.300995,24.169928 31.955748,25.508799 
z"/>
<path fill="#C4F7FF" opacity="1.000000" stroke="none" 
	d="
M159.574615,19.883581 
	C158.417160,18.810213 157.473267,17.965689 157.501038,17.990540 
	C158.740723,16.790596 160.092438,15.482214 161.444153,14.173831 
	C161.063629,13.756259 160.683105,13.338688 160.302567,12.921116 
	C161.344406,14.241726 162.386230,15.562336 163.767914,17.313759 
	C162.471741,18.225264 161.129959,19.168846 159.574615,19.883581 
z"/>
<path fill="#C4F7FF" opacity="1.000000" stroke="none" 
	d="
M48.598896,145.423950 
	C47.049858,144.722824 45.752457,143.824860 44.471539,142.938293 
	C45.769012,141.663132 46.811104,140.638977 47.918243,139.550873 
	C49.209240,140.473434 50.629341,141.488235 52.099068,142.538498 
	C51.059444,143.398941 49.954987,144.313019 48.598896,145.423950 
z"/>
<path fill="#91E2FF" opacity="1.000000" stroke="none" 
	d="
M111.756958,82.785698 
	C114.990936,79.202705 117.977654,75.877083 120.926926,72.593163 
	C128.202515,76.018326 128.301376,76.498024 123.459969,82.106277 
	C115.549789,91.269386 107.672104,100.460579 99.792938,109.650421 
	C95.176643,115.034599 95.023384,115.019463 88.987015,110.653687 
	C83.760712,106.873795 78.454750,103.204056 72.895943,99.282410 
	C74.583107,97.012657 76.025574,95.072090 77.838326,92.633385 
	C81.908546,95.541161 85.845421,98.228294 89.639000,101.104431 
	C92.548409,103.310219 94.566238,103.374763 97.051407,100.125107 
	C101.577461,94.206734 106.659584,88.713615 111.756958,82.785698 
z"/>
<path fill="#F1FCFD" opacity="1.000000" stroke="none" 
	d="
M131.050964,50.283325 
	C134.965134,42.786400 141.403778,39.552227 148.490692,41.162277 
	C155.030350,42.647999 160.115265,48.371502 160.898788,55.128605 
	C161.685852,61.916267 157.654007,68.151337 150.071198,71.562317 
	C149.030273,67.170128 148.079681,62.641991 147.613495,58.064522 
	C147.143524,53.449814 144.711014,51.780876 140.352158,52.060169 
	C138.873215,52.154938 137.373550,51.926361 135.436707,51.880688 
	C133.747574,51.456547 132.505081,50.997257 131.050964,50.283325 
z"/>
<path fill="#FC761D" opacity="1.000000" stroke="none" 
	d="
M64.036819,88.707489 
	C63.827976,88.755959 63.537136,88.528847 63.144165,88.037613 
	C63.346298,87.992966 63.650562,88.212433 64.036819,88.707489 
z"/>
<path fill="#1B6282" opacity="1.000000" stroke="none" 
	d="
M39.627632,116.490051 
	C40.272469,114.018082 41.047489,111.955681 41.229149,109.842278 
	C41.363670,108.277245 41.169762,106.355629 40.347683,105.099876 
	C38.112514,101.685555 37.942211,98.523598 40.949665,95.736298 
	C43.609688,93.271019 46.787628,93.293633 49.512642,95.648956 
	C52.650414,98.361046 52.447250,101.501625 50.365261,104.985092 
	C49.489147,106.450958 49.208496,108.584801 49.423183,110.320229 
	C49.779762,113.202621 50.754738,116.008514 51.716091,119.827118 
	C47.628838,119.827118 44.244736,119.955650 40.890846,119.695168 
	C40.358574,119.653824 39.962337,117.860855 39.627632,116.490051 
z"/>
<path fill="#F0FBFC" opacity="1.000000" stroke="none" 
	d="
M35.161369,83.946548 
	C35.898319,76.902718 38.705368,75.040215 47.890961,75.975792 
	C48.145668,79.024231 48.101681,81.433464 48.057690,83.842697 
	C43.920864,83.890503 39.784035,83.938316 35.161369,83.946548 
z"/>
<path fill="#63B9FB" opacity="1.000000" stroke="none" 
	d="
M48.491920,83.907448 
	C48.101681,81.433464 48.145668,79.024231 48.239769,76.154129 
	C52.737572,76.244476 55.238464,78.792816 55.954708,83.532372 
	C53.609547,83.921654 51.267853,83.946922 48.491920,83.907448 
z"/>
<path fill="#F99043" opacity="1.000000" stroke="none" 
	d="
M140.487854,113.154510 
	C149.930511,118.402809 152.978027,128.120804 147.982162,136.020065 
	C142.836014,144.156952 132.821152,146.185654 124.971428,140.681320 
	C118.786240,136.344177 116.725632,127.705856 120.189003,120.632797 
	C123.738274,113.384308 131.374619,110.465614 140.487854,113.154510 
z"/>
</svg>