<svg version="1.1" id="Layer_1" xmlns="http://www.w3.org/2000/svg" xmlns:xlink="http://www.w3.org/1999/xlink" x="0px" y="0px"
	 width="100%" viewBox="0 0 2800 1574" enable-background="new 0 0 2800 1574" xml:space="preserve">
<path fill="#F1FBFF" opacity="1.000000" stroke="none" 
	d="
M2802.000000,1410.000000 
	C2802.000000,1465.300781 2802.000000,1520.601440 2802.000000,1576.000000 
	C2370.620117,1576.000000 1939.240112,1576.000000 1506.860474,1575.307617 
	C1496.854126,1562.304810 1486.835449,1551.144531 1474.804932,1541.460083 
	C1445.456543,1517.834595 1413.640015,1499.453979 1376.541016,1491.237549 
	C1369.134277,1489.597046 1361.663086,1487.630615 1354.147339,1487.238281 
	C1341.969604,1486.602783 1329.549194,1485.821167 1317.553955,1487.461426 
	C1291.091675,1491.080078 1266.459839,1501.337524 1241.838989,1511.229858 
	C1238.669189,1512.503418 1234.490112,1513.218384 1233.265869,1517.833252 
	C1229.224121,1516.269531 1225.919556,1514.737183 1222.578247,1513.289551 
	C1205.804321,1506.021729 1188.515869,1500.018188 1170.326294,1498.183105 
	C1142.725952,1495.398560 1116.374023,1501.659912 1090.775513,1511.653931 
	C1068.897217,1520.195435 1047.166260,1529.195679 1023.885742,1533.243286 
	C1020.995544,1530.993164 1018.415039,1528.758545 1015.463501,1528.032837 
	C982.560120,1519.944458 950.459106,1509.261597 919.175720,1496.451538 
	C889.111084,1484.140381 859.707520,1470.215210 830.011414,1457.003906 
	C821.828857,1453.363647 813.704407,1449.582764 805.439697,1446.138916 
	C779.946350,1435.516235 753.308838,1429.047974 726.169617,1424.317139 
	C709.341614,1421.383789 692.360718,1421.985718 675.892578,1424.792236 
	C659.670410,1427.556763 643.960876,1433.453735 628.149536,1438.372070 
	C625.743347,1439.120483 624.002747,1442.008789 621.128601,1443.812500 
	C616.725037,1443.154663 613.163391,1442.265869 609.566345,1442.086182 
	C595.264343,1441.371948 581.165344,1443.292358 567.174683,1445.998291 
	C536.469177,1451.936768 509.601440,1465.711426 486.489227,1486.621704 
	C462.022400,1508.757446 444.046234,1535.660278 430.360260,1565.505615 
	C428.898163,1568.693970 428.755035,1572.487305 428.000000,1576.000000 
	C286.068481,1576.000000 144.136963,1576.000000 2.000000,1576.000000 
	C2.000000,1123.953369 2.000000,671.906738 2.702988,218.995255 
	C5.196892,219.940857 7.396784,221.495209 8.715343,223.601318 
	C21.646246,244.255859 36.467087,263.029816 55.423203,278.838928 
	C88.482338,306.409760 126.601860,321.399292 168.766312,325.609161 
	C194.538284,328.182343 220.545227,326.116119 246.086075,320.911957 
	C256.101471,318.871216 266.018524,316.347931 276.156555,314.792358 
	C278.546936,319.394745 282.295441,318.274597 285.281097,317.672363 
	C302.463501,314.206329 319.824921,311.278351 336.659546,306.519196 
	C362.195374,299.300140 387.410889,290.919189 412.650879,282.689423 
	C449.058899,270.818207 483.984802,255.226410 518.377747,238.586243 
	C545.018005,225.697052 570.824036,211.093369 597.142761,197.527008 
	C617.277893,187.148041 637.538025,176.999863 657.914734,167.103531 
	C692.597412,150.259171 728.115417,135.545944 765.597351,125.968079 
	C767.913879,125.376137 769.874084,123.389694 772.873657,122.046783 
	C777.039246,122.319084 780.355469,122.430405 783.618958,122.904495 
	C794.723022,124.517601 805.757629,127.085724 816.912109,127.773285 
	C838.077332,129.077911 859.325745,130.198044 880.504089,129.742767 
	C896.608826,129.396545 912.685852,126.706421 928.721619,124.642639 
	C937.206787,123.550606 945.577515,121.569595 954.140259,120.740417 
	C957.052673,122.983429 959.692444,125.358910 962.622375,125.797852 
	C970.461975,126.972336 978.444031,128.052704 986.337524,127.860123 
	C1017.245117,127.106079 1048.232544,130.340424 1079.067993,126.043732 
	C1094.790771,123.852875 1110.715210,122.659973 1126.216187,119.423668 
	C1155.725098,113.262741 1184.631226,104.959793 1212.748047,93.715164 
	C1242.235596,81.922440 1270.043701,67.062347 1296.319458,49.545784 
	C1314.762939,37.250500 1331.894043,22.972326 1349.420044,9.333817 
	C1351.555786,7.671881 1352.502319,4.481844 1354.000000,1.999995 
	C1836.423706,2.000000 2318.847412,2.000000 2802.000000,2.000000 
	C2802.000000,88.711960 2802.000000,175.425949 2801.255371,263.081360 
	C2796.991211,265.696625 2793.046387,266.817719 2790.025391,269.140045 
	C2776.911377,279.221069 2763.846191,289.390747 2751.196777,300.042938 
	C2741.820801,307.938507 2732.552490,316.108459 2724.244873,325.089355 
	C2713.245850,336.979858 2703.022705,349.612732 2692.842529,362.230194 
	C2677.792969,380.883026 2665.442139,401.338898 2655.588135,423.110321 
	C2650.010742,435.433075 2645.746094,448.456177 2642.016602,461.486237 
	C2634.993652,486.021210 2631.042480,510.782532 2633.605957,536.728699 
	C2636.132812,562.301270 2640.846436,587.189392 2649.640381,611.184204 
	C2659.563721,638.259094 2670.472900,664.973022 2680.993408,691.828247 
	C2682.237793,695.005188 2683.874512,697.925903 2687.967773,698.810791 
	C2694.121826,717.343872 2700.261963,735.097473 2706.365723,752.863586 
	C2712.907959,771.905701 2719.415771,790.959656 2725.367432,810.611145 
	C2723.157227,827.318481 2723.272217,843.459839 2720.549805,859.624695 
	C2716.585205,883.167114 2709.483887,905.419006 2699.442139,926.771790 
	C2692.682373,941.145935 2684.718506,954.989075 2676.719238,968.735779 
	C2667.064209,985.328308 2657.511963,1002.058594 2646.607666,1017.824768 
	C2635.125244,1034.426636 2622.687012,1050.345703 2613.046875,1068.179565 
	C2603.186035,1086.421631 2596.864746,1105.861328 2591.742432,1125.911011 
	C2587.294434,1143.321899 2587.816650,1160.843140 2588.144775,1178.402588 
	C2588.304443,1186.950073 2589.125732,1195.684692 2591.156250,1203.964478 
	C2601.850098,1247.569092 2624.251221,1284.847412 2654.585938,1317.466675 
	C2675.882324,1340.367065 2698.748047,1361.640137 2724.569580,1379.464722 
	C2734.870117,1386.575317 2745.553955,1393.130859 2756.685059,1400.225952 
	C2771.105713,1408.739136 2783.943604,1418.617065 2800.036621,1426.581543 
	C2800.036621,1419.859375 2800.036621,1414.941772 2800.527344,1410.014404 
	C2801.018311,1410.004517 2802.000000,1410.000000 2802.000000,1410.000000 
z"/>
<path fill="#CBEAFF" opacity="1.000000" stroke="none" 
	d="
M275.980377,314.044373 
	C266.018524,316.347931 256.101471,318.871216 246.086075,320.911957 
	C220.545227,326.116119 194.538284,328.182343 168.766312,325.609161 
	C126.601860,321.399292 88.482338,306.409760 55.423203,278.838928 
	C36.467087,263.029816 21.646246,244.255859 8.715343,223.601318 
	C7.396784,221.495209 5.196892,219.940857 2.702988,218.065231 
	C2.000000,146.046677 2.000000,74.093369 2.000000,2.000000 
	C379.375122,2.000000 756.750244,2.000000 1134.996826,2.697051 
	C1135.263916,4.555746 1134.896851,5.950732 1134.018921,6.843091 
	C1124.758301,16.255718 1115.229004,25.410479 1106.143555,34.987137 
	C1094.396729,47.368820 1080.446533,56.886044 1066.477295,66.396240 
	C1036.432617,86.850624 1004.600708,103.720161 969.684875,114.385361 
	C964.380859,116.005524 959.224548,118.109657 953.999939,119.989922 
	C945.577515,121.569595 937.206787,123.550606 928.721619,124.642639 
	C912.685852,126.706421 896.608826,129.396545 880.504089,129.742767 
	C859.325745,130.198044 838.077332,129.077911 816.912109,127.773285 
	C805.757629,127.085724 794.723022,124.517601 783.618958,122.904495 
	C780.355469,122.430405 777.039246,122.319084 772.299927,121.457909 
	C762.987244,119.936081 755.134216,118.327202 747.254211,118.181931 
	C720.696838,117.692352 694.019592,116.511673 667.844360,122.444122 
	C640.246155,128.699097 613.372986,137.283676 588.000854,150.028122 
	C546.640991,170.803238 508.702271,197.256607 469.434937,221.515335 
	C447.406464,235.124176 425.079041,248.323807 402.296783,260.615112 
	C382.729462,271.171906 362.456238,280.462799 342.236542,289.750427 
	C331.721619,294.580261 320.702637,298.344116 309.810577,302.312897 
	C298.597717,306.398621 287.262207,310.147919 275.980377,314.044373 
z"/>
<path fill="#CAEAFF" opacity="1.000000" stroke="none" 
	d="
M2725.938477,810.008423 
	C2719.415771,790.959656 2712.907959,771.905701 2706.365723,752.863586 
	C2700.261963,735.097473 2694.121826,717.343872 2687.898926,698.031921 
	C2685.472656,686.819153 2683.016357,677.188232 2680.842285,667.493896 
	C2674.669922,639.969910 2673.745117,612.109375 2678.458740,584.429565 
	C2685.344238,543.997131 2700.239990,506.565643 2723.621338,472.616028 
	C2742.185791,445.660583 2764.238281,421.905365 2788.794678,400.421692 
	C2792.679199,397.023315 2797.572998,394.778259 2802.000000,391.999969 
	C2802.000000,672.041809 2802.000000,952.083557 2801.418457,1233.661011 
	C2800.564453,1237.818604 2800.055664,1240.440308 2800.053711,1243.062378 
	C2800.013672,1298.716309 2800.030762,1354.370361 2800.036621,1410.024292 
	C2800.036621,1414.941772 2800.036621,1419.859375 2800.036621,1426.581543 
	C2783.943604,1418.617065 2771.105713,1408.739136 2756.586426,1399.544434 
	C2755.433594,1397.689453 2755.197021,1396.608887 2754.539551,1395.944702 
	C2738.188965,1379.426025 2721.520264,1363.212524 2705.480713,1346.398315 
	C2687.908203,1327.976929 2674.603271,1306.608765 2663.736572,1283.600342 
	C2646.028076,1246.106079 2637.571289,1207.154419 2643.936035,1165.671143 
	C2648.418945,1136.451660 2658.102539,1108.973877 2672.506104,1083.242432 
	C2687.093506,1057.182983 2702.865723,1031.826416 2715.043701,1004.405457 
	C2723.712158,984.887329 2731.232178,965.104797 2736.193359,944.371704 
	C2738.424805,935.046204 2741.418945,925.622986 2741.715332,916.170349 
	C2742.432617,893.296875 2743.771729,870.202332 2737.808105,847.732300 
	C2734.429932,835.004150 2729.931885,822.573242 2725.938477,810.008423 
z"/>
<path fill="#CAEAFF" opacity="1.000000" stroke="none" 
	d="
M428.937317,1576.000000 
	C428.755035,1572.487305 428.898163,1568.693970 430.360260,1565.505615 
	C444.046234,1535.660278 462.022400,1508.757446 486.489227,1486.621704 
	C509.601440,1465.711426 536.469177,1451.936768 567.174683,1445.998291 
	C581.165344,1443.292358 595.264343,1441.371948 609.566345,1442.086182 
	C613.163391,1442.265869 616.725037,1443.154663 621.945801,1443.865234 
	C626.830505,1444.678955 630.130859,1445.139893 633.304199,1446.046143 
	C649.867249,1450.775513 666.937744,1454.285400 682.820129,1460.717285 
	C710.223328,1471.814697 736.735535,1485.090698 763.902222,1496.801392 
	C782.499634,1504.818237 801.291992,1512.587524 820.513489,1518.893555 
	C839.381409,1525.083618 858.823486,1529.609131 878.157166,1534.269897 
	C898.480896,1539.169434 919.000793,1543.000488 940.119751,1542.066284 
	C948.103760,1541.712891 956.119019,1541.881714 964.115784,1542.034790 
	C984.509277,1542.425049 1004.405701,1539.259033 1024.023071,1533.959595 
	C1047.166260,1529.195679 1068.897217,1520.195435 1090.775513,1511.653931 
	C1116.374023,1501.659912 1142.725952,1495.398560 1170.326294,1498.183105 
	C1188.515869,1500.018188 1205.804321,1506.021729 1222.578247,1513.289551 
	C1225.919556,1514.737183 1229.224121,1516.269531 1233.655273,1518.395508 
	C1237.837280,1520.943726 1241.060059,1522.656738 1243.956177,1524.809448 
	C1257.140503,1534.610352 1270.564209,1544.132935 1283.227539,1554.573608 
	C1290.215332,1560.334717 1297.445435,1566.497681 1300.000000,1576.000000 
	C1009.958191,1576.000000 719.916443,1576.000000 428.937317,1576.000000 
z"/>
<path fill="#E1F5FE" opacity="1.000000" stroke="none" 
	d="
M2802.000000,391.062653 
	C2797.572998,394.778259 2792.679199,397.023315 2788.794678,400.421692 
	C2764.238281,421.905365 2742.185791,445.660583 2723.621338,472.616028 
	C2700.239990,506.565643 2685.344238,543.997131 2678.458740,584.429565 
	C2673.745117,612.109375 2674.669922,639.969910 2680.842285,667.493896 
	C2683.016357,677.188232 2685.472656,686.819153 2687.869141,697.257935 
	C2683.874512,697.925903 2682.237793,695.005188 2680.993408,691.828247 
	C2670.472900,664.973022 2659.563721,638.259094 2649.640381,611.184204 
	C2640.846436,587.189392 2636.132812,562.301270 2633.605957,536.728699 
	C2631.042480,510.782532 2634.993652,486.021210 2642.016602,461.486237 
	C2645.746094,448.456177 2650.010742,435.433075 2655.588135,423.110321 
	C2665.442139,401.338898 2677.792969,380.883026 2692.842529,362.230194 
	C2703.022705,349.612732 2713.245850,336.979858 2724.244873,325.089355 
	C2732.552490,316.108459 2741.820801,307.938507 2751.196777,300.042938 
	C2763.846191,289.390747 2776.911377,279.221069 2790.025391,269.140045 
	C2793.046387,266.817719 2796.991211,265.696625 2801.255371,264.011383 
	C2802.000000,306.041779 2802.000000,348.083588 2802.000000,391.062653 
z"/>
<path fill="#E1F5FE" opacity="1.000000" stroke="none" 
	d="
M954.140259,120.740433 
	C959.224548,118.109657 964.380859,116.005524 969.684875,114.385361 
	C1004.600708,103.720161 1036.432617,86.850624 1066.477295,66.396240 
	C1080.446533,56.886044 1094.396729,47.368820 1106.143555,34.987137 
	C1115.229004,25.410479 1124.758301,16.255718 1134.018921,6.843091 
	C1134.896851,5.950732 1135.263916,4.555746 1135.934082,2.697051 
	C1208.041748,2.000000 1280.083618,2.000000 1353.062744,1.999995 
	C1352.502319,4.481844 1351.555786,7.671881 1349.420044,9.333817 
	C1331.894043,22.972326 1314.762939,37.250500 1296.319458,49.545784 
	C1270.043701,67.062347 1242.235596,81.922440 1212.748047,93.715164 
	C1184.631226,104.959793 1155.725098,113.262741 1126.216187,119.423668 
	C1110.715210,122.659973 1094.790771,123.852875 1079.067993,126.043732 
	C1048.232544,130.340424 1017.245117,127.106079 986.337524,127.860123 
	C978.444031,128.052704 970.461975,126.972336 962.622375,125.797852 
	C959.692444,125.358910 957.052673,122.983429 954.140259,120.740433 
z"/>
<path fill="#E1F5FE" opacity="1.000000" stroke="none" 
	d="
M1300.937256,1576.000000 
	C1297.445435,1566.497681 1290.215332,1560.334717 1283.227539,1554.573608 
	C1270.564209,1544.132935 1257.140503,1534.610352 1243.956177,1524.809448 
	C1241.060059,1522.656738 1237.837280,1520.943726 1234.375488,1518.465820 
	C1234.490112,1513.218384 1238.669189,1512.503418 1241.838989,1511.229858 
	C1266.459839,1501.337524 1291.091675,1491.080078 1317.553955,1487.461426 
	C1329.549194,1485.821167 1341.969604,1486.602783 1354.147339,1487.238281 
	C1361.663086,1487.630615 1369.134277,1489.597046 1376.541016,1491.237549 
	C1413.640015,1499.453979 1445.456543,1517.834595 1474.804932,1541.460083 
	C1486.835449,1551.144531 1496.854126,1562.304810 1505.930420,1575.307617 
	C1437.958252,1576.000000 1369.916382,1576.000000 1300.937256,1576.000000 
z"/>
<path fill="#E1F5FE" opacity="1.000000" stroke="none" 
	d="
M2800.527344,1410.014404 
	C2800.030762,1354.370361 2800.013672,1298.716309 2800.053711,1243.062378 
	C2800.055664,1240.440308 2800.564453,1237.818604 2801.418457,1234.598389 
	C2802.000000,1292.041748 2802.000000,1350.083618 2802.000000,1409.062744 
	C2802.000000,1410.000000 2801.018311,1410.004517 2800.527344,1410.014404 
z"/>
<path fill="#E1F5FE" opacity="1.000000" stroke="none" 
	d="
M2725.367676,810.611084 
	C2729.931885,822.573242 2734.429932,835.004150 2737.808105,847.732300 
	C2743.771729,870.202332 2742.432617,893.296875 2741.715332,916.170349 
	C2741.418945,925.622986 2738.424805,935.046204 2736.193359,944.371704 
	C2731.232178,965.104797 2723.712158,984.887329 2715.043701,1004.405457 
	C2702.865723,1031.826416 2687.093506,1057.182983 2672.506104,1083.242432 
	C2658.102539,1108.973877 2648.418945,1136.451660 2643.936035,1165.671143 
	C2637.571289,1207.154419 2646.028076,1246.106079 2663.736572,1283.600342 
	C2674.603271,1306.608765 2687.908203,1327.976929 2705.480713,1346.398315 
	C2721.520264,1363.212524 2738.188965,1379.426025 2754.539551,1395.944702 
	C2755.197021,1396.608887 2755.433594,1397.689453 2755.964844,1399.257568 
	C2745.553955,1393.130859 2734.870117,1386.575317 2724.569580,1379.464722 
	C2698.748047,1361.640137 2675.882324,1340.367065 2654.585938,1317.466675 
	C2624.251221,1284.847412 2601.850098,1247.569092 2591.156250,1203.964478 
	C2589.125732,1195.684692 2588.304443,1186.950073 2588.144775,1178.402588 
	C2587.816650,1160.843140 2587.294434,1143.321899 2591.742432,1125.911011 
	C2596.864746,1105.861328 2603.186035,1086.421631 2613.046875,1068.179565 
	C2622.687012,1050.345703 2635.125244,1034.426636 2646.607666,1017.824768 
	C2657.511963,1002.058594 2667.064209,985.328308 2676.719238,968.735779 
	C2684.718506,954.989075 2692.682373,941.145935 2699.442139,926.771790 
	C2709.483887,905.419006 2716.585205,883.167114 2720.549805,859.624695 
	C2723.272217,843.459839 2723.157227,827.318481 2725.367676,810.611084 
z"/>
<path fill="#E1F5FE" opacity="1.000000" stroke="none" 
	d="
M1023.885742,1533.243286 
	C1004.405701,1539.259033 984.509277,1542.425049 964.115784,1542.034790 
	C956.119019,1541.881714 948.103760,1541.712891 940.119751,1542.066284 
	C919.000793,1543.000488 898.480896,1539.169434 878.157166,1534.269897 
	C858.823486,1529.609131 839.381409,1525.083618 820.513489,1518.893555 
	C801.291992,1512.587524 782.499634,1504.818237 763.902222,1496.801392 
	C736.735535,1485.090698 710.223328,1471.814697 682.820129,1460.717285 
	C666.937744,1454.285400 649.867249,1450.775513 633.304199,1446.046143 
	C630.130859,1445.139893 626.830505,1444.678955 622.771484,1443.960083 
	C624.002747,1442.008789 625.743347,1439.120483 628.149536,1438.372070 
	C643.960876,1433.453735 659.670410,1427.556763 675.892578,1424.792236 
	C692.360718,1421.985718 709.341614,1421.383789 726.169617,1424.317139 
	C753.308838,1429.047974 779.946350,1435.516235 805.439697,1446.138916 
	C813.704407,1449.582764 821.828857,1453.363647 830.011414,1457.003906 
	C859.707520,1470.215210 889.111084,1484.140381 919.175720,1496.451538 
	C950.459106,1509.261597 982.560120,1519.944458 1015.463501,1528.032837 
	C1018.415039,1528.758545 1020.995544,1530.993164 1023.885742,1533.243286 
z"/>
<path fill="#E1F5FE" opacity="1.000000" stroke="none" 
	d="
M276.156555,314.792389 
	C287.262207,310.147919 298.597717,306.398621 309.810577,302.312897 
	C320.702637,298.344116 331.721619,294.580261 342.236542,289.750427 
	C362.456238,280.462799 382.729462,271.171906 402.296783,260.615112 
	C425.079041,248.323807 447.406464,235.124176 469.434937,221.515335 
	C508.702271,197.256607 546.640991,170.803238 588.000854,150.028122 
	C613.372986,137.283676 640.246155,128.699097 667.844360,122.444122 
	C694.019592,116.511673 720.696838,117.692352 747.254211,118.181931 
	C755.134216,118.327202 762.987244,119.936081 771.426331,121.463181 
	C769.874084,123.389694 767.913879,125.376137 765.597351,125.968079 
	C728.115417,135.545944 692.597412,150.259171 657.914734,167.103531 
	C637.538025,176.999863 617.277893,187.148041 597.142761,197.527008 
	C570.824036,211.093369 545.018005,225.697052 518.377747,238.586243 
	C483.984802,255.226410 449.058899,270.818207 412.650879,282.689423 
	C387.410889,290.919189 362.195374,299.300140 336.659546,306.519196 
	C319.824921,311.278351 302.463501,314.206329 285.281097,317.672363 
	C282.295441,318.274597 278.546936,319.394745 276.156555,314.792389 
z"/>
</svg>